<?xml version="1.0" standalone="no"?>
<svg version="1.0" xmlns="http://www.w3.org/2000/svg"
 width="300.000000pt" height="300.000000pt" viewBox="0 0 300.000000 300.000000"
 preserveAspectRatio="xMidYMid meet">
<g transform="translate(0.000000,300.000000) scale(0.100000,-0.100000)"
fill="#000000" stroke="none">
<path d="M1393 1981 c-132 -45 -215 -149 -229 -289 -18 -168 102 -325 279
-366 l27 -6 0 80 0 80 -37 15 c-50 21 -72 42 -94 90 -20 44 -24 100 -10 138
11 29 69 97 82 97 5 0 9 -25 9 -55 0 -52 1 -55 25 -55 25 0 25 1 25 91 l0 91
-27 -7 c-72 -17 -144 -89 -164 -165 -25 -93 20 -206 100 -252 34 -19 41 -28
41 -55 0 -31 0 -31 -32 -20 -18 7 -58 37 -90 68 -61 60 -88 123 -88 205 0 125
103 252 228 279 25 5 32 12 32 31 0 28 -8 29 -77 5z"/>
<path d="M1535 1921 l0 -81 31 -10 c37 -12 89 -64 103 -103 26 -69 1 -162 -56
-207 l-28 -22 -3 95 c-3 91 -3 94 -25 90 -21 -4 -22 -8 -21 -126 2 -136 1
-134 74 -97 137 70 160 263 44 369 -24 23 -50 41 -59 41 -11 0 -15 10 -15 35
0 19 4 35 8 35 4 0 32 -15 62 -33 154 -91 186 -297 69 -431 -47 -54 -92 -83
-144 -94 -28 -5 -39 -13 -41 -29 -5 -32 4 -33 73 -12 79 25 161 97 200 177 24
49 28 69 28 142 0 97 -20 153 -80 226 -36 44 -130 98 -190 110 l-30 6 0 -81z"/>
</g>
</svg>
